<?xml version="1.0" encoding="UTF-8"?>
<svg width="1200pt" height="1200pt" version="1.1" viewBox="0 0 1200 1200" xmlns="http://www.w3.org/2000/svg">
 <g>
  <path d="m665.47 27.691c-78.301 0-142.01 63.707-142.01 142 0 78.301 63.715 142 142.01 142 78.301 0 142.01-63.707 142.01-142 0-78.297-63.715-142-142.01-142zm0 247.09c-57.945 0-105.09-47.137-105.09-105.08 0-57.945 47.145-105.08 105.09-105.08 57.945 0 105.09 47.133 105.09 105.08 0 57.945-47.145 105.08-105.09 105.08z"/>
  <path d="m995.96 494.09c-11.523-39.062-37.105-72.055-72.062-92.91-49.449-25.16-93.746-70.961-178.36-70.961-299.12-5.1797-309.7 11.77-337-15.523l-161-161c-26.754-26.754-73.395-26.988-100.4-0.42578-28.336 27.867-28.434 73.332-0.43359 101.32l184.87 184.86c51.719 51.742 110.86 32.555 180.95 40.602v177.27c-29.535 24.461-143.74 62.785-186.18 207.86l-59.047 201.75c-15.402 52.711 24.035 105.39 78.973 105.39 37.066 0 69.734-24.988 79.414-60.773l52.23-192.9c17.562-64.777 65.152-74.855 192.59-182.45 18.906 57.258 49.801 123.66 67.785 229.52l23.457 138.03c6.7422 39.691 40.871 68.492 82.41 68.492 50.887 0 89.582-45.75 81.148-95.902l-18.246-108.62c-21.203-126.22-55.773-200.88-88.703-303.33v-152.18c22.105 7.0938 39.305 24.504 46.102 46.75l53.906 176.25c9.2305 30.188 36.652 50.469 68.223 50.469 47.668 0 81.941-45.781 68.418-91.531zm-9.375 254.64c-15.234 0-28.469-9.7773-32.922-24.348l-53.906-176.25c-10.492-34.363-37.301-61.125-71.684-71.594l-21.168-6.4453c-2.1641-0.89453-4.5234-1.3789-7.0117-1.3789-10.203 0-18.461 8.2656-18.461 18.461v180.26c0 2.0273 0.34375 4.0469 0.99219 5.9766 33.977 105.5 67.637 177.78 88.215 300.39l18.246 108.63c4.4414 26.379-14.957 52.859-46.012 52.859-22.195 0-40.996-15.875-44.711-37.754l-23.457-138.03c-19.133-112.57-51.148-179.14-78.012-259.86-1.6953-4.7227-5.2812-8.5469-9.8633-10.609-4.5586-2.0547-9.8242-2.1719-14.496-0.28906-1.6211 0.64844-3.1562 1.5312-4.5234 2.6055-137.55 117.07-203.02 134.52-225.52 217.62l-52.23 192.9c-5.3516 19.742-23.344 33.516-43.785 33.516-30.258 0-52.043-29.02-43.523-58.098l59.047-201.75c37.871-129.52 144.36-164.37 179.17-192.55 5.8398-3.7227 8.9062-10.215 8.4922-16.723v-202.52c0.83984-10.125-6.9883-19.453-17.668-19.875-92.488-8.5938-135.44 8.1523-174.11-30.535l-184.87-184.86c-13.527-13.547-13.441-35.457 0.21484-48.887 13.016-12.801 35.516-12.691 48.406 0.20703l161 161c45.117 45.141 82.754 18.57 363.1 26.34 71.773 0 108.41 39.375 159.43 65.75 26.953 16.082 46.695 41.523 55.582 71.648l59.043 200.04c6.4805 21.934-9.8945 44.152-33.004 44.152z"/>
  <path d="m1130.7 180.44-59.496-32.543-32.543-59.484c-6.4531-11.844-25.926-11.828-32.379 0l-32.543 59.484-59.477 32.543c-5.9336 3.2461-9.6094 9.4453-9.6094 16.199 0 6.75 3.6758 12.961 9.6094 16.199l59.477 32.531 32.543 59.488c3.2266 5.9219 9.4453 9.6094 16.191 9.6094 6.7422 0 12.961-3.6758 16.188-9.6016l32.543-59.496 59.496-32.531c5.9336-3.2344 9.6094-9.4453 9.6094-16.199s-3.6797-12.953-9.6094-16.199zm-81.941 35.129c-3.1016 1.6953-5.6445 4.2461-7.3398 7.3398l-18.945 34.625-18.93-34.617c-1.6758-3.1016-4.2383-5.6523-7.3398-7.3477l-34.617-18.93 34.617-18.941c3.1016-1.6953 5.6445-4.2461 7.3398-7.3398l18.93-34.617 18.945 34.617c1.6953 3.0938 4.2383 5.6445 7.3398 7.3398l34.617 18.941z"/>
  <path d="m295.32 611.48c0-6.7539-3.6758-12.953-9.6094-16.199l-59.496-32.543-32.543-59.484c-6.4531-11.844-25.926-11.828-32.379 0l-32.543 59.484-59.477 32.543c-5.9297 3.2422-9.6094 9.4453-9.6094 16.199 0 6.75 3.6797 12.961 9.6094 16.199l59.48 32.531 32.543 59.488c3.2266 5.9141 9.4453 9.6016 16.191 9.6016 6.7422 0 12.961-3.6758 16.188-9.6016l32.539-59.488 59.496-32.531c5.9336-3.2383 9.6094-9.4492 9.6094-16.199zm-91.551 18.93c-3.1016 1.6953-5.6445 4.2383-7.3398 7.3359l-18.945 34.617-18.93-34.617c-1.6953-3.0938-4.2383-5.6406-7.3398-7.3359l-34.617-18.93 34.617-18.941c3.1016-1.6953 5.6445-4.2461 7.3398-7.3398l18.93-34.617 18.945 34.617c1.6953 3.0938 4.2383 5.6445 7.3398 7.3398l34.617 18.941z"/>
  <path d="m377.61 169.73h15.867c10.203 0 18.461-8.2656 18.461-18.461 0-10.195-8.2578-18.461-18.461-18.461h-15.867c-10.203 0-18.461 8.2656-18.461 18.461 0 10.195 8.2578 18.461 18.461 18.461z"/>
  <path d="m120.37 76.02c0-10.195-8.2578-18.461-18.461-18.461h-15.852c-10.203 0-18.461 8.2656-18.461 18.461 0 10.195 8.2578 18.461 18.461 18.461h15.848c10.207 0 18.465-8.2656 18.465-18.461z"/>
  <path d="m385.54 660.46c10.203 0 18.461-8.2656 18.461-18.461s-8.2578-18.461-18.461-18.461h-15.848c-10.203 0-18.461 8.2656-18.461 18.461s8.2578 18.461 18.461 18.461z"/>
  <path d="m78.129 388.15c-10.203 0-18.461 8.2656-18.461 18.461 0 10.195 8.2578 18.461 18.461 18.461h15.863c10.207 0 18.461-8.2656 18.461-18.461 0-10.195-8.2578-18.461-18.461-18.461z"/>
  <path d="m907.28 94.48h15.863c10.207 0 18.461-8.2656 18.461-18.461 0-10.195-8.2578-18.461-18.461-18.461h-15.863c-10.207 0-18.461 8.2656-18.461 18.461-0.003906 10.195 8.2539 18.461 18.461 18.461z"/>
  <path d="m1113.9 362.77h-15.867c-10.203 0-18.461 8.2656-18.461 18.461 0 10.195 8.2578 18.461 18.461 18.461h15.867c10.203 0 18.461-8.2656 18.461-18.461 0-10.195-8.2578-18.461-18.461-18.461z"/>
 </g>
</svg>
