<?xml version="1.0" encoding="UTF-8"?>
<svg width="1200pt" height="1200pt" version="1.1" viewBox="0 0 1200 1200" xmlns="http://www.w3.org/2000/svg">
 <g>
  <path d="m1027.8 870.75-12-74.062-856.12 139.31-86.324-400.31-73.312 15.824 101.32 469.95z"/>
  <path d="m150 774.49h1050v-595.95h-1050zm75-520.95h900v445.99l-900-0.003906z"/>
  <path d="m690.64 376.91c20.738 0 36.449 5.3984 47.289 16.238l11.25-52.801c-15.75-7.7617-34.312-11.625-55.648-11.625-39.148 0-70.688 12.824-94.727 38.477-15.863 17.023-26.512 38.176-31.836 63.488h-22.688l-6.0742 29.551h24.938c-0.22656 4.4609-0.375 9.6016-0.375 15.449 0 3.4492 0.074219 6.6367 0.1875 9.7109h-18.676l-6.0742 29.551h28.199c5.2109 25.836 15.938 47.324 32.211 64.613 23.887 25.387 54.375 38.137 91.461 38.137 22.012 0 41.25-4.125 57.789-12.414v-58.352c-14.512 15-33.938 22.5-58.352 22.5-20.324 0-36.824-7.5-49.539-22.5-6.6367-7.7266-11.512-18.414-14.699-32.023h86.926l6.1133-29.551h-97.012c-0.26172-4.8359-0.375-9.4492-0.375-13.914 0-4.5391 0.039063-8.2891 0.1875-11.25h102.52l6.1133-29.551h-104.89c3.0742-12.602 8.2109-23.062 15.449-31.461 12.824-14.812 29.625-22.273 50.324-22.273z"/>
 </g>
</svg>
